# xmcd
#
# Track frame offsets: 
#        150
#        11721
#        25021
#        39826
#        50303
#        61528
#        78974
#        92208
#        108032
#        120945
#        135526
#        153884
#        165725
#        182886
#        199803
#        217783
#        233118
#        247180
#        262911
#        275150
#
# Disc length: 3897 seconds
#
# Revision: 1
# Processed by: cddbd v1.5.2PL0 Copyright (c) Steve Scherf et al.
# Submitted via: ExactAudioCopy v0.95a5
#
DISCID=f90f3714
DTITLE=Crystal Gayle - Crystal - The Crystal Gayle Collection
DYEAR=2001
DGENRE=
TTITLE0=Don't It Make My Brown Eyes Blue
TTITLE1=Talkin' in Your Sleep
TTITLE2=The Blue Side
TTITLE3=Crying in the Rain
TTITLE4=Hollywood
TTITLE5=Ain't No Love in the Heart of the City
TTITLE6=I Just Can't Leave Your Love Alone
TTITLE7=Deeper in the Fire
TTITLE8=True Love
TTITLE9=The Sound of Goodbye
TTITLE10=Half the Way
TTITLE11=Victim or a Fool
TTITLE12=Nobody Wants to be Alone
TTITLE13=A New Way to Say I Love You
TTITLE14=Straight to the Heart
TTITLE15=Only Love can Save Me Now
TTITLE16=Nobody's Angel
TTITLE17=Tennessee Nights
TTITLE18=Lean On Me
TTITLE19=Miss the Mississippi and You
EXTD=
EXTT0=
EXTT1=
EXTT2=
EXTT3=
EXTT4=
EXTT5=
EXTT6=
EXTT7=
EXTT8=
EXTT9=
EXTT10=
EXTT11=
EXTT12=
EXTT13=
EXTT14=
EXTT15=
EXTT16=
EXTT17=
EXTT18=
EXTT19=
PLAYORDER=
